<svg width="180" height="64" viewBox="0 0 180 64" fill="none" xmlns="http://www.w3.org/2000/svg">
<path d="M179 56.2133C179 59.5906 176.709 62.3263 173.874 62.3263H6.13243C3.2995 62.3263 1 59.5906 1 56.2133V7.46379C1 4.08805 3.2995 1.34277 6.13243 1.34277H173.873C176.709 1.34277 178.999 4.08805 178.999 7.46379L179 56.2133Z" fill="black"/>
<path d="M173.333 1.41645C176.42 1.41645 178.932 4.40102 178.932 8.06885V55.6001C178.932 59.2679 176.42 62.2525 173.333 62.2525H6.66667C3.58 62.2525 1.06833 59.2679 1.06833 55.6001V8.06885C1.06833 4.40102 3.58 1.41645 6.66667 1.41645H173.333ZM173.333 0.146974H6.66667C3.00167 0.146974 0 3.7138 0 8.06885V55.6001C0 59.9551 3.00167 63.522 6.66667 63.522H173.333C176.998 63.522 180 59.9551 180 55.6001V8.06885C180 3.7138 176.998 0.146974 173.333 0.146974Z" fill="#A6A6A6"/>
<path d="M40.1707 31.4923C40.132 26.3858 43.6894 23.9015 43.852 23.7859C41.8374 20.2955 38.7147 19.8186 37.6174 19.7806C34.9947 19.4526 32.4507 21.6454 31.1147 21.6454C29.752 21.6454 27.6947 19.8123 25.4774 19.8661C22.624 19.9184 19.9547 21.8815 18.4907 24.9298C15.4694 31.1453 17.7227 40.2792 20.6174 45.3033C22.0654 47.7638 23.7574 50.5111 25.972 50.4145C28.1387 50.3083 28.948 48.773 31.5627 48.773C34.1534 48.773 34.9134 50.4145 37.172 50.3527C39.4974 50.3083 40.9614 47.881 42.3587 45.3983C44.032 42.5781 44.704 39.8007 44.7307 39.6581C44.676 39.636 40.2147 37.6127 40.1707 31.4923Z" fill="white"/>
<path d="M35.904 16.4756C37.0694 14.7439 37.8667 12.3879 37.6454 9.99707C35.9587 10.0858 33.8494 11.3834 32.6347 13.0771C31.56 14.5696 30.6 17.0158 30.848 19.3164C32.7427 19.4843 34.688 18.1804 35.904 16.4756Z" fill="white"/>
<path d="M71.5266 50.0611H68.4986L66.84 43.8677H61.0746L59.4946 50.0611H56.5466L62.2586 28.9762H65.7866L71.5266 50.0611ZM66.34 41.2694L64.84 35.7637C64.6813 35.2012 64.384 33.8767 63.9453 31.7916H63.892C63.7173 32.6884 63.436 34.0129 63.0493 35.7637L61.576 41.2694H66.34Z" fill="white"/>
<path d="M86.216 42.2724C86.216 44.8581 85.628 46.902 84.452 48.4024C83.3987 49.738 82.0907 50.4051 80.5293 50.4051C78.844 50.4051 77.6333 49.6857 76.896 48.2471H76.8427V56.2562H74V39.8626C74 38.237 73.964 36.5687 73.8947 34.8575H76.3947L76.5533 37.2674H76.6067C77.5547 35.4517 78.9933 34.5454 80.924 34.5454C82.4333 34.5454 83.6933 35.2536 84.7013 36.6716C85.712 38.0913 86.216 39.9576 86.216 42.2724ZM83.32 42.396C83.32 40.9162 83.04 39.6962 82.4773 38.7361C81.8627 37.7348 81.0373 37.2341 80.0027 37.2341C79.3013 37.2341 78.664 37.513 78.0947 38.0627C77.524 38.6173 77.1507 39.3413 76.976 40.2381C76.888 40.6564 76.844 40.9986 76.844 41.2679V43.8029C76.844 44.9088 77.1293 45.842 77.7 46.6041C78.2707 47.3662 79.012 47.7465 79.924 47.7465C80.9947 47.7465 81.828 47.2553 82.424 46.2762C83.0213 45.2954 83.32 44.0026 83.32 42.396Z" fill="white"/>
<path d="M100.932 42.2724C100.932 44.8581 100.344 46.902 99.1666 48.4024C98.1146 49.738 96.8066 50.4051 95.2453 50.4051C93.5599 50.4051 92.3493 49.6857 91.6133 48.2471H91.5599V56.2562H88.7173V39.8626C88.7173 38.237 88.6813 36.5687 88.6119 34.8575H91.1119L91.2706 37.2674H91.3239C92.2706 35.4517 93.7093 34.5454 95.6413 34.5454C97.1493 34.5454 98.4093 35.2536 99.42 36.6716C100.427 38.0913 100.932 39.9576 100.932 42.2724ZM98.0359 42.396C98.0359 40.9162 97.7546 39.6962 97.1919 38.7361C96.5773 37.7348 95.7546 37.2341 94.7186 37.2341C94.0159 37.2341 93.3799 37.513 92.8093 38.0627C92.2386 38.6173 91.8666 39.3413 91.6919 40.2381C91.6053 40.6564 91.5599 40.9986 91.5599 41.2679V43.8029C91.5599 44.9088 91.8453 45.842 92.4133 46.6041C92.9839 47.3646 93.7253 47.7465 94.6399 47.7465C95.7106 47.7465 96.544 47.2553 97.14 46.2762C97.7373 45.2954 98.0359 44.0026 98.0359 42.396Z" fill="white"/>
<path d="M117.385 44.1483C117.385 45.9418 116.861 47.401 115.809 48.5275C114.653 49.7586 113.044 50.3733 110.976 50.3733C109.067 50.3733 107.536 49.936 106.377 49.0598L107.036 46.2444C108.284 47.1412 109.653 47.5911 111.145 47.5911C112.216 47.5911 113.049 47.3028 113.648 46.7292C114.244 46.1557 114.541 45.3857 114.541 44.4255C114.541 43.57 114.296 42.8491 113.804 42.2645C113.315 41.6798 112.497 41.1364 111.356 40.6341C108.249 39.2573 106.697 37.2404 106.697 34.5882C106.697 32.8549 107.241 31.4337 108.331 30.3278C109.416 29.2203 110.864 28.6674 112.675 28.6674C114.289 28.6674 115.631 29.0017 116.701 29.6687L115.991 32.4223C114.991 31.7759 113.86 31.4527 112.595 31.4527C111.595 31.4527 110.813 31.7458 110.253 32.3288C109.78 32.8501 109.543 33.4854 109.543 34.238C109.543 35.0714 109.813 35.7606 110.357 36.3025C110.831 36.8031 111.691 37.345 112.939 37.9296C114.465 38.66 115.587 39.514 116.308 40.4931C117.027 41.4691 117.385 42.6907 117.385 44.1483Z" fill="white"/>
<path d="M126.784 37.3925H123.651V44.7741C123.651 46.6516 124.203 47.5895 125.309 47.5895C125.817 47.5895 126.239 47.5372 126.572 47.4327L126.651 49.9978C126.091 50.2465 125.353 50.3717 124.44 50.3717C123.317 50.3717 122.44 49.9645 121.807 49.1517C121.176 48.3373 120.859 46.9716 120.859 45.0529V37.3893H118.992V34.8543H120.859V32.0705L123.651 31.0692V34.8543H126.784V37.3925Z" fill="white"/>
<path d="M140.921 42.3341C140.921 44.671 140.359 46.5897 139.236 48.0901C138.059 49.6349 136.496 50.4049 134.548 50.4049C132.671 50.4049 131.176 49.665 130.061 48.1852C128.947 46.7054 128.389 44.8374 128.389 42.586C128.389 40.23 128.963 38.3003 130.113 36.7999C131.261 35.2979 132.811 34.5469 134.759 34.5469C136.636 34.5469 138.147 35.2868 139.287 36.7682C140.377 38.2052 140.921 40.0605 140.921 42.3341ZM137.972 42.4434C137.972 41.0412 137.72 39.8387 137.209 38.8358C136.613 37.6222 135.761 37.0169 134.657 37.0169C133.515 37.0169 132.647 37.6237 132.051 38.8358C131.54 39.8403 131.288 41.0618 131.288 42.5068C131.288 43.909 131.54 45.1115 132.051 46.1128C132.665 47.3265 133.524 47.9317 134.632 47.9317C135.717 47.9317 136.569 47.3138 137.184 46.0811C137.708 45.0592 137.972 43.844 137.972 42.4434Z" fill="white"/>
<path d="M150.161 37.8282C149.88 37.7665 149.58 37.7348 149.265 37.7348C148.265 37.7348 147.492 38.1831 146.948 39.0815C146.475 39.8737 146.237 40.875 146.237 42.0839V50.0612H143.396L143.423 39.6455C143.423 37.8932 143.387 36.2977 143.316 34.8591H145.792L145.896 37.768H145.975C146.275 36.7683 146.748 35.9634 147.396 35.3598C148.029 34.8163 148.713 34.5454 149.451 34.5454C149.713 34.5454 149.951 34.5676 150.161 34.6072V37.8282Z" fill="white"/>
<path d="M162.875 41.74C162.875 42.3452 162.841 42.8554 162.771 43.2721H154.243C154.276 44.7741 154.688 45.9227 155.48 46.7149C156.199 47.4231 157.128 47.778 158.269 47.778C159.532 47.778 160.684 47.5388 161.72 47.0587L162.165 49.4036C160.955 50.031 159.525 50.3431 157.876 50.3431C155.892 50.3431 154.335 49.6492 153.201 48.2629C152.071 46.8765 151.504 45.0149 151.504 42.6795C151.504 40.3869 152.031 38.4778 153.085 36.9552C154.189 35.3296 155.681 34.5168 157.559 34.5168C159.403 34.5168 160.799 35.3296 161.747 36.9552C162.497 38.2465 162.875 39.8435 162.875 41.74ZM160.164 40.8638C160.183 39.8625 159.997 38.9974 159.612 38.2671C159.12 37.3275 158.364 36.8585 157.347 36.8585C156.417 36.8585 155.661 37.3164 155.084 38.2354C154.611 38.9658 154.329 39.8419 154.243 40.8623H160.164V40.8638Z" fill="white"/>
<path d="M65.4 16.005C65.4 17.8698 64.9293 19.2736 63.9893 20.2163C63.1187 21.0861 61.8813 21.5218 60.2787 21.5218C59.484 21.5218 58.804 21.4806 58.2347 21.3982V11.2091C58.9773 11.0665 59.7773 10.9937 60.6413 10.9937C62.168 10.9937 63.3187 11.3882 64.0947 12.1772C64.964 13.0692 65.4 14.3446 65.4 16.005ZM63.9267 16.051C63.9267 14.8421 63.6573 13.9152 63.1187 13.2688C62.58 12.624 61.7933 12.3008 60.7573 12.3008C60.3173 12.3008 59.9427 12.3356 59.632 12.4085V20.1545C59.804 20.1862 60.1187 20.2004 60.576 20.2004C61.6453 20.2004 62.4707 19.8471 63.052 19.1405C63.6333 18.4339 63.9267 17.404 63.9267 16.051Z" fill="white"/>
<path d="M73.2121 17.6338C73.2121 18.7825 72.9361 19.7236 72.3841 20.4619C71.8054 21.2208 71.0387 21.5995 70.0814 21.5995C69.1587 21.5995 68.424 21.2367 67.876 20.5078C67.3294 19.7806 67.056 18.8633 67.056 17.7574C67.056 16.6008 67.3374 15.6517 67.9027 14.915C68.468 14.1782 69.228 13.8091 70.1854 13.8091C71.1081 13.8091 71.8494 14.1719 72.4107 14.8991C72.9441 15.6058 73.2121 16.5184 73.2121 17.6338ZM71.7627 17.6876C71.7627 16.9984 71.6374 16.4075 71.3881 15.9147C71.0947 15.319 70.6774 15.0211 70.1347 15.0211C69.5734 15.0211 69.1467 15.319 68.8534 15.9147C68.6027 16.4075 68.4787 17.0079 68.4787 17.7178C68.4787 18.407 68.604 18.9979 68.8534 19.4907C69.156 20.0864 69.5774 20.3843 70.1214 20.3843C70.6547 20.3843 71.0734 20.0816 71.3747 19.4748C71.6334 18.9726 71.7627 18.3769 71.7627 17.6876Z" fill="white"/>
<path d="M83.6866 13.9612L81.72 21.4299H80.44L79.6253 18.1867C79.4187 17.3771 79.2507 16.5722 79.12 15.7737H79.0947C78.9733 16.5944 78.8053 17.3977 78.5893 18.1867L77.724 21.4299H76.4293L74.58 13.9612H76.016L76.7267 17.5118C76.8987 18.3515 77.04 19.1516 77.1533 19.9089H77.1787C77.2827 19.2847 77.4547 18.4893 77.6973 17.5276L78.5893 13.9628H79.728L80.5827 17.4515C80.7893 18.3024 80.9573 19.1215 81.0867 19.9105H81.1253C81.22 19.1421 81.3627 18.323 81.552 17.4515L82.3147 13.9628H83.6866V13.9612Z" fill="white"/>
<path d="M90.9307 21.4299H89.5333V17.1521C89.5333 15.8339 89.112 15.1748 88.2667 15.1748C87.852 15.1748 87.5173 15.3554 87.2573 15.7183C87 16.0811 86.8693 16.5089 86.8693 16.9984V21.4283H85.472V16.0953C85.472 15.4394 85.4547 14.728 85.4213 13.958H86.6493L86.7147 15.1257H86.7533C86.916 14.7629 87.1587 14.4634 87.4773 14.2242C87.856 13.9453 88.28 13.8043 88.744 13.8043C89.3307 13.8043 89.8187 14.0293 90.2067 14.4809C90.6893 15.0338 90.9307 15.8593 90.9307 16.9556V21.4299Z" fill="white"/>
<path d="M94.784 21.4299H93.388V10.5342H94.784V21.4299Z" fill="white"/>
<path d="M103.011 17.6338C103.011 18.7825 102.735 19.7236 102.183 20.4619C101.604 21.2208 100.836 21.5995 99.88 21.5995C98.956 21.5995 98.2213 21.2367 97.6747 20.5078C97.128 19.7806 96.8547 18.8633 96.8547 17.7574C96.8547 16.6008 97.136 15.6517 97.7013 14.915C98.2667 14.1782 99.0267 13.8091 99.9827 13.8091C100.907 13.8091 101.647 14.1719 102.209 14.8991C102.743 15.6058 103.011 16.5184 103.011 17.6338ZM101.56 17.6876C101.56 16.9984 101.435 16.4075 101.185 15.9147C100.893 15.319 100.475 15.0211 99.9333 15.0211C99.3707 15.0211 98.944 15.319 98.652 15.9147C98.4013 16.4075 98.2773 17.0079 98.2773 17.7178C98.2773 18.407 98.4027 18.9979 98.652 19.4907C98.9547 20.0864 99.376 20.3843 99.92 20.3843C100.453 20.3843 100.871 20.0816 101.172 19.4748C101.432 18.9726 101.56 18.3769 101.56 17.6876Z" fill="white"/>
<path d="M109.773 21.43H108.519L108.415 20.5696H108.376C107.947 21.2557 107.335 21.5995 106.54 21.5995C105.947 21.5995 105.467 21.3729 105.105 20.923C104.777 20.5142 104.613 20.0056 104.613 19.4019C104.613 18.4893 104.933 17.7938 105.577 17.3121C106.22 16.8305 107.124 16.5944 108.288 16.6055V16.4661C108.288 15.4822 107.853 14.991 106.983 14.991C106.363 14.991 105.816 15.1764 105.344 15.544L105.06 14.4539C105.644 14.0246 106.365 13.8091 107.216 13.8091C108.859 13.8091 109.683 14.8389 109.683 16.8986V19.6491C109.683 20.3954 109.713 20.9895 109.773 21.43ZM108.323 18.8633V17.7114C106.781 17.6797 106.011 18.182 106.011 19.2166C106.011 19.6063 106.099 19.8979 106.279 20.0927C106.459 20.2876 106.688 20.3843 106.961 20.3843C107.268 20.3843 107.555 20.2686 107.816 20.0389C108.079 19.8076 108.24 19.5144 108.3 19.1548C108.315 19.074 108.323 18.9758 108.323 18.8633Z" fill="white"/>
<path d="M117.713 21.43H116.473L116.408 20.2306H116.369C115.973 21.1432 115.299 21.5995 114.351 21.5995C113.593 21.5995 112.963 21.2462 112.463 20.5395C111.963 19.8329 111.713 18.9155 111.713 17.7891C111.713 16.5802 111.984 15.601 112.528 14.8532C113.055 14.1561 113.7 13.8075 114.468 13.8075C115.312 13.8075 115.903 14.145 116.239 14.8215H116.265V10.5342H117.664V19.4178C117.664 20.145 117.68 20.8152 117.713 21.43ZM116.265 18.2802V17.0349C116.265 16.8194 116.252 16.6451 116.227 16.512C116.148 16.1128 115.979 15.7769 115.721 15.506C115.461 15.235 115.148 15.0988 114.787 15.0988C114.265 15.0988 113.857 15.3444 113.557 15.8371C113.26 16.3298 113.109 16.9588 113.109 17.7273C113.109 18.4656 113.252 19.0645 113.539 19.5255C113.841 20.0167 114.249 20.2623 114.76 20.2623C115.219 20.2623 115.585 20.0579 115.864 19.6475C116.133 19.2689 116.265 18.8126 116.265 18.2802Z" fill="white"/>
<path d="M129.664 17.6338C129.664 18.7825 129.388 19.7236 128.836 20.4619C128.257 21.2208 127.492 21.5995 126.533 21.5995C125.612 21.5995 124.877 21.2367 124.328 20.5078C123.781 19.7806 123.508 18.8633 123.508 17.7574C123.508 16.6008 123.789 15.6517 124.355 14.915C124.92 14.1782 125.68 13.8091 126.639 13.8091C127.56 13.8091 128.303 14.1719 128.863 14.8991C129.396 15.6058 129.664 16.5184 129.664 17.6338ZM128.216 17.6876C128.216 16.9984 128.091 16.4075 127.841 15.9147C127.547 15.319 127.131 15.0211 126.587 15.0211C126.027 15.0211 125.6 15.319 125.305 15.9147C125.055 16.4075 124.931 17.0079 124.931 17.7178C124.931 18.407 125.056 18.9979 125.305 19.4907C125.608 20.0864 126.029 20.3843 126.573 20.3843C127.107 20.3843 127.527 20.0816 127.828 19.4748C128.085 18.9726 128.216 18.3769 128.216 17.6876Z" fill="white"/>
<path d="M137.177 21.4299H135.781V17.1521C135.781 15.8339 135.36 15.1748 134.513 15.1748C134.099 15.1748 133.764 15.3554 133.505 15.7183C133.247 16.0811 133.117 16.5089 133.117 16.9984V21.4283H131.719V16.0953C131.719 15.4394 131.703 14.728 131.669 13.958H132.896L132.961 15.1257H133C133.164 14.7629 133.407 14.4634 133.724 14.2242C134.104 13.9453 134.527 13.8043 134.992 13.8043C135.577 13.8043 136.065 14.0293 136.453 14.4809C136.937 15.0338 137.177 15.8593 137.177 16.9556V21.4299Z" fill="white"/>
<path d="M146.581 15.2049H145.043V18.8331C145.043 19.7552 145.316 20.2163 145.857 20.2163C146.108 20.2163 146.316 20.1909 146.48 20.1387L146.516 21.3982C146.24 21.5218 145.877 21.5836 145.431 21.5836C144.879 21.5836 144.449 21.384 144.139 20.9847C143.827 20.5855 143.672 19.9137 143.672 18.971V15.2049H142.753V13.9611H143.672V12.5922L145.041 12.1011V13.9596H146.58V15.2049H146.581Z" fill="white"/>
<path d="M153.979 21.4299H152.58V17.1838C152.58 15.845 152.159 15.1748 151.315 15.1748C150.667 15.1748 150.224 15.563 149.981 16.3393C149.94 16.5025 149.916 16.7021 149.916 16.9366V21.4283H148.52V10.5342H149.916V15.0354H149.943C150.383 14.2163 151.013 13.8075 151.831 13.8075C152.409 13.8075 152.888 14.0325 153.268 14.484C153.741 15.0465 153.979 15.883 153.979 16.9889V21.4299Z" fill="white"/>
<path d="M161.609 17.3423C161.609 17.6402 161.591 17.8905 161.557 18.0949H157.367C157.385 18.8332 157.585 19.3956 157.973 19.7854C158.328 20.134 158.785 20.3082 159.345 20.3082C159.965 20.3082 160.531 20.191 161.04 19.9549L161.259 21.1083C160.663 21.4157 159.961 21.5694 159.149 21.5694C158.176 21.5694 157.409 21.2288 156.855 20.5475C156.297 19.8662 156.021 18.952 156.021 17.8049C156.021 16.6785 156.279 15.7405 156.797 14.9927C157.339 14.1942 158.071 13.7949 158.995 13.7949C159.899 13.7949 160.585 14.1942 161.049 14.9927C161.424 15.6264 161.609 16.4107 161.609 17.3423ZM160.276 16.913C160.287 16.4202 160.195 15.9956 160.005 15.6375C159.763 15.1765 159.393 14.9452 158.893 14.9452C158.437 14.9452 158.065 15.1701 157.781 15.6217C157.549 15.9813 157.412 16.4107 157.367 16.913H160.276Z" fill="white"/>
</svg>
