<svg width="180" height="64" viewBox="0 0 180 64" fill="none" xmlns="http://www.w3.org/2000/svg">
<path d="M173.095 63.522H6.6575C2.99754 63.522 0 59.9551 0 55.6001V8.06885C0 3.7138 2.99754 0.146974 6.6575 0.146974H173.095C176.755 0.146974 179.753 3.7138 179.753 8.06885V55.6001C179.753 59.9551 176.755 63.522 173.095 63.522Z" fill="black"/>
<path d="M173.095 1.41645C176.177 1.41645 178.686 4.40102 178.686 8.06885V55.6001C178.686 59.2679 176.177 62.2525 173.095 62.2525H6.6575C3.57508 62.2525 1.06686 59.2679 1.06686 55.6001V8.06885C1.06686 4.40102 3.57508 1.41645 6.6575 1.41645H173.095ZM173.095 0.146974H6.6575C2.99754 0.146974 0 3.7138 0 8.06885V55.6001C0 59.9551 2.99754 63.522 6.6575 63.522H173.095C176.755 63.522 179.753 59.9551 179.753 55.6001V8.06885C179.753 3.7138 176.755 0.146974 173.095 0.146974Z" fill="#A6A6A6"/>
<path d="M63.1364 16.3769C63.1364 17.6999 62.8036 18.7594 62.1478 19.5496C61.3938 20.4864 60.4119 20.9577 59.2085 20.9577C58.0584 20.9577 57.0765 20.4785 56.2709 19.5338C55.4637 18.5752 55.0609 17.3988 55.0609 15.9907C55.0609 14.5826 55.4637 13.4062 56.2709 12.4556C57.0765 11.503 58.0584 11.0237 59.2085 11.0237C59.7811 11.0237 60.327 11.1643 60.8479 11.4257C61.3672 11.6891 61.79 12.0456 62.0962 12.4853L61.4005 13.321C60.8662 12.5704 60.1389 12.2001 59.2085 12.2001C58.3697 12.2001 57.6424 12.5486 57.0249 13.2517C56.414 13.9568 56.1078 14.8698 56.1078 15.9907C56.1078 17.1117 56.414 18.0326 57.0249 18.7376C57.6424 19.4328 58.3697 19.7893 59.2085 19.7893C60.099 19.7893 60.8479 19.4328 61.4388 18.7297C61.8283 18.2643 62.0496 17.6226 62.1079 16.8027H59.2085V15.658H63.0765C63.1231 15.9055 63.1364 16.1452 63.1364 16.3769Z" fill="white" stroke="white" stroke-width="0.16" stroke-miterlimit="10"/>
<path d="M69.273 12.4081H65.6397V15.4184H68.9151V16.5631H65.6397V19.5734H69.273V20.7399H64.6111V11.2416H69.273V12.4081Z" fill="white" stroke="white" stroke-width="0.16" stroke-miterlimit="10"/>
<path d="M73.6036 20.7399H72.575V12.4081H70.3464V11.2416H75.8339V12.4081H73.6036V20.7399Z" fill="white" stroke="white" stroke-width="0.16" stroke-miterlimit="10"/>
<path d="M79.8052 20.7399V11.2416H80.8321V20.7399H79.8052Z" fill="white" stroke="white" stroke-width="0.16" stroke-miterlimit="10"/>
<path d="M85.3841 20.7399H84.3639V12.4081H82.127V11.2416H87.6211V12.4081H85.3841V20.7399Z" fill="white" stroke="white" stroke-width="0.16" stroke-miterlimit="10"/>
<path d="M98.0101 19.5179C97.2228 20.4785 96.2475 20.9577 95.0841 20.9577C93.914 20.9577 92.9387 20.4785 92.1514 19.5179C91.3659 18.5594 90.9747 17.383 90.9747 15.9907C90.9747 14.5984 91.3659 13.422 92.1514 12.4635C92.9387 11.503 93.914 11.0237 95.0841 11.0237C96.2408 11.0237 97.2161 11.503 98.0034 12.4714C98.7956 13.4379 99.1868 14.6064 99.1868 15.9907C99.1868 17.383 98.7956 18.5594 98.0101 19.5179ZM92.9121 18.7218C93.5046 19.4328 94.2253 19.7893 95.0841 19.7893C95.9362 19.7893 96.6636 19.4328 97.2494 18.7218C97.8403 18.0108 98.1399 17.0978 98.1399 15.9907C98.1399 14.8836 97.8403 13.9706 97.2494 13.2596C96.6636 12.5486 95.9362 12.1922 95.0841 12.1922C94.2253 12.1922 93.5046 12.5486 92.9121 13.2596C92.3212 13.9706 92.0216 14.8836 92.0216 15.9907C92.0216 17.0978 92.3212 18.0108 92.9121 18.7218Z" fill="white" stroke="white" stroke-width="0.16" stroke-miterlimit="10"/>
<path d="M100.63 20.7399V11.2416H101.878L105.759 18.6287H105.804L105.759 16.8027V11.2416H106.786V20.7399H105.714L101.65 12.9883H101.605L101.65 14.8223V20.7399H100.63Z" fill="white" stroke="white" stroke-width="0.16" stroke-miterlimit="10"/>
<path d="M90.7218 34.6111C87.5944 34.6111 85.0396 37.4432 85.0396 41.3507C85.0396 45.2264 87.5944 48.0882 90.7218 48.0882C93.8558 48.0882 96.4106 45.2264 96.4106 41.3507C96.4106 37.4432 93.8558 34.6111 90.7218 34.6111ZM90.7218 45.4344C89.0058 45.4344 87.5295 43.749 87.5295 41.3507C87.5295 38.9206 89.0058 37.265 90.7218 37.265C92.4377 37.265 93.9207 38.9206 93.9207 41.3507C93.9207 43.749 92.4377 45.4344 90.7218 45.4344ZM78.3238 34.6111C75.1898 34.6111 72.6417 37.4432 72.6417 41.3507C72.6417 45.2264 75.1898 48.0882 78.3238 48.0882C81.4562 48.0882 84.006 45.2264 84.006 41.3507C84.006 37.4432 81.4562 34.6111 78.3238 34.6111ZM78.3238 45.4344C76.6062 45.4344 75.1249 43.749 75.1249 41.3507C75.1249 38.9206 76.6062 37.265 78.3238 37.265C80.0398 37.265 81.5161 38.9206 81.5161 41.3507C81.5161 43.749 80.0398 45.4344 78.3238 45.4344ZM63.5708 36.6768V39.5405H69.3179C69.1498 41.1407 68.7004 42.3171 68.0114 43.137C67.1725 44.1273 65.866 45.2264 63.5708 45.2264C60.034 45.2264 57.2645 41.8299 57.2645 37.6214C57.2645 33.4129 60.034 30.0164 63.5708 30.0164C65.4832 30.0164 66.8746 30.9057 67.9015 32.0583L69.5975 30.0402C68.1612 28.4083 66.2505 27.1547 63.5708 27.1547C58.7208 27.1547 54.6448 31.8504 54.6448 37.6214C54.6448 43.3925 58.7208 48.0882 63.5708 48.0882C66.1922 48.0882 68.1612 47.0663 69.709 45.1492C71.2952 43.2618 71.7895 40.608 71.7895 38.4651C71.7895 37.7997 71.7429 37.1877 71.6597 36.6768H63.5708ZM123.898 38.8969C123.43 37.3897 121.987 34.6111 119.048 34.6111C116.135 34.6111 113.71 37.3422 113.71 41.3507C113.71 45.1254 116.11 48.0882 119.327 48.0882C121.929 48.0882 123.43 46.2008 124.048 45.1017L122.117 43.5708C121.473 44.6917 120.596 45.4344 119.327 45.4344C118.067 45.4344 117.164 44.7472 116.584 43.3925L124.159 39.6633L123.898 38.8969ZM116.175 41.1407C116.11 38.5424 117.871 37.2115 119.133 37.2115C120.121 37.2115 120.96 37.7997 121.24 38.6414L116.175 41.1407ZM110.019 47.6783H112.508V27.8736H110.019V47.6783ZM105.941 36.1123H105.858C105.298 35.3241 104.232 34.6111 102.88 34.6111C100.044 34.6111 97.4508 37.5739 97.4508 41.3724C97.4508 45.1492 100.044 48.0882 102.88 48.0882C104.232 48.0882 105.298 47.3693 105.858 46.5573H105.941V47.5238C105.941 50.1004 104.784 51.4847 102.918 51.4847C101.397 51.4847 100.453 50.1776 100.064 49.0785L97.8985 50.1538C98.5227 51.9402 100.175 54.1385 102.918 54.1385C105.838 54.1385 108.301 52.0947 108.301 47.1217V35.0211H105.941V36.1123ZM103.093 45.4344C101.377 45.4344 99.9407 43.7252 99.9407 41.3724C99.9407 38.9979 101.377 37.265 103.093 37.265C104.784 37.265 106.117 38.9979 106.117 41.3724C106.117 43.7252 104.784 45.4344 103.093 45.4344ZM135.555 27.8736H129.6V47.6783H132.083V40.1743H135.555C138.313 40.1743 141.018 37.7997 141.018 34.0229C141.018 30.2482 138.306 27.8736 135.555 27.8736ZM135.62 37.4194H132.083V30.6284H135.62C137.474 30.6284 138.533 32.4603 138.533 34.0229C138.533 35.5558 137.474 37.4194 135.62 37.4194ZM150.97 34.5735C149.176 34.5735 147.311 35.5162 146.543 37.6056L148.747 38.7048C149.221 37.6056 150.093 37.2491 151.015 37.2491C152.304 37.2491 153.61 38.17 153.63 39.796V40.0039C153.181 39.695 152.219 39.2375 151.035 39.2375C148.662 39.2375 146.244 40.7922 146.244 43.6936C146.244 46.3474 148.188 48.0565 150.373 48.0565C152.044 48.0565 152.966 47.1594 153.545 46.1157H153.63V47.6466H156.029V40.0495C156.029 36.5381 153.825 34.5735 150.97 34.5735ZM150.671 45.4265C149.859 45.4265 148.727 44.9472 148.727 43.749C148.727 42.2161 150.138 41.6279 151.36 41.6279C152.453 41.6279 152.966 41.9151 153.63 42.2934C153.435 44.1273 152.109 45.4265 150.671 45.4265ZM164.766 35.0072L161.912 43.5926H161.827L158.876 35.0072H156.198L160.632 47.0049L158.102 53.6811H160.697L167.529 35.0072H164.766ZM142.382 47.6783H144.872V27.8736H142.382V47.6783Z" fill="white"/>
<path d="M13.8942 12.0912C13.5031 12.5784 13.2767 13.3369 13.2767 14.3192V49.3577C13.2767 50.34 13.5031 51.0985 13.8942 51.5857L13.9908 51.6926L30.4914 32.0662V31.6028L13.9908 11.9763L13.8942 12.0912Z" fill="url(#paint0_linear_48_15)"/>
<path d="M35.9854 38.6116L30.4913 32.0661V31.6027L35.9921 25.0573L36.1153 25.1424L42.6296 29.5529C44.4887 30.8046 44.4887 32.8643 42.6296 34.1238L36.1153 38.5264L35.9854 38.6116Z" fill="url(#paint1_linear_48_15)"/>
<path d="M36.1153 38.5265L30.4914 31.8345L13.8942 51.5857C14.5117 52.3581 15.5187 52.4512 16.6637 51.6788L36.1153 38.5265Z" fill="url(#paint2_linear_48_15)"/>
<path d="M36.1153 25.1425L16.6637 11.9902C15.5187 11.2257 14.5117 11.3188 13.8942 12.0912L30.4914 31.8345L36.1153 25.1425Z" fill="url(#paint3_linear_48_15)"/>
<defs>
<linearGradient id="paint0_linear_48_15" x1="29.0263" y1="49.7225" x2="2.83368" y2="27.7104" gradientUnits="userSpaceOnUse">
<stop stop-color="#00A0FF"/>
<stop offset="0.0066" stop-color="#00A1FF"/>
<stop offset="0.2601" stop-color="#00BEFF"/>
<stop offset="0.5122" stop-color="#00D2FF"/>
<stop offset="0.7604" stop-color="#00DFFF"/>
<stop offset="1" stop-color="#00E3FF"/>
</linearGradient>
<linearGradient id="paint1_linear_48_15" x1="45.0505" y1="31.8322" x2="12.8323" y2="31.8322" gradientUnits="userSpaceOnUse">
<stop stop-color="#FFE000"/>
<stop offset="0.4087" stop-color="#FFBD00"/>
<stop offset="0.7754" stop-color="#FFA500"/>
<stop offset="1" stop-color="#FF9C00"/>
</linearGradient>
<linearGradient id="paint2_linear_48_15" x1="33.0572" y1="28.1966" x2="-2.46218" y2="-1.6537" gradientUnits="userSpaceOnUse">
<stop stop-color="#FF3A44"/>
<stop offset="1" stop-color="#C31162"/>
</linearGradient>
<linearGradient id="paint3_linear_48_15" x1="9.71638" y1="63.2428" x2="25.5773" y2="49.9134" gradientUnits="userSpaceOnUse">
<stop stop-color="#32A071"/>
<stop offset="0.0685" stop-color="#2DA771"/>
<stop offset="0.4762" stop-color="#15CF74"/>
<stop offset="0.8009" stop-color="#06E775"/>
<stop offset="1" stop-color="#00F076"/>
</linearGradient>
</defs>
</svg>
