<svg width="1440" height="201" viewBox="0 0 1440 201" fill="none" xmlns="http://www.w3.org/2000/svg">
<g clip-path="url(#clip0_34_14)">
<path d="M1494 160.8L1484.12 167.521C1474.13 173.991 1454.25 187.809 1434.91 167.521C1414.72 147.609 1395.16 93.5906 1374.75 87.1209C1355.2 80.4 1335 120.6 1315.67 113.879C1295.68 107.409 1275.92 53.3906 1255.5 26.8209C1236.17 0 1216.83 4.76837e-07 1196.42 13.3791C1176.65 27.0094 1156.67 53.3906 1137.33 73.6791C1117.13 93.5906 1097.58 107.409 1077.17 113.879C1057.62 120.6 1037.42 120.6 1018.08 117.271C998.208 113.691 978.333 107.409 958.996 110.55C938.691 113.691 919.246 127.509 898.835 123.929C879.175 120.6 859.085 100.5 839.748 80.4C819.658 60.3 799.999 40.2 779.587 50.25C760.142 60.3 739.837 100.5 720.5 97.1709C700.625 93.5906 680.751 47.1094 661.413 40.2C641.216 33.2906 621.664 67.2094 601.252 93.7791C581.7 120.6 561.503 140.7 542.165 157.471C522.183 173.991 502.416 187.809 482.004 184.229C462.667 180.9 443.329 160.8 422.917 137.371C403.15 113.691 383.168 87.3094 363.83 73.6791C343.634 60.3 324.081 60.3 303.669 80.4C284.117 100.5 263.92 140.7 244.583 140.7C224.708 140.7 204.833 100.5 185.496 80.4C165.191 60.3 145.746 60.3 125.335 73.6791C105.675 87.3094 85.5853 113.691 66.2478 110.55C46.1583 107.409 26.4985 73.4906 6.08667 63.6291C-13.3583 53.3906 -33.6626 67.2094 -43.3314 73.6791L-53.0001 80.4V201H-43.1166C-33.1255 201 -13.2509 201 6.08667 201C26.2836 201 45.8359 201 66.2478 201C85.8002 201 105.997 201 125.335 201C145.317 201 165.084 201 185.496 201C204.833 201 224.171 201 244.583 201C264.35 201 284.332 201 303.669 201C323.866 201 343.419 201 363.83 201C383.383 201 403.58 201 422.917 201C442.792 201 462.667 201 482.004 201C502.308 201 521.753 201 542.165 201C561.825 201 581.914 201 601.252 201C621.341 201 641.001 201 661.413 201C680.858 201 701.162 201 720.5 201C740.375 201 760.249 201 779.587 201C799.784 201 819.336 201 839.748 201C859.3 201 879.497 201 898.835 201C918.817 201 938.584 201 958.996 201C978.333 201 997.671 201 1018.08 201C1037.85 201 1057.83 201 1077.17 201C1097.37 201 1116.92 201 1137.33 201C1156.88 201 1177.08 201 1196.42 201C1216.29 201 1236.17 201 1255.5 201C1275.81 201 1295.25 201 1315.67 201C1335.33 201 1355.41 201 1374.75 201C1394.84 201 1414.5 201 1434.91 201C1454.36 201 1474.66 201 1484.33 201H1494V160.8Z" fill="#0099FF" fill-opacity="0.65"/>
</g>
<defs>
<clipPath id="clip0_34_14">
<rect width="1440" height="201" fill="white" transform="matrix(-1 0 0 1 1440 0)"/>
</clipPath>
</defs>
</svg>
