<svg width="1440" height="156" viewBox="0 0 1440 156" fill="none" xmlns="http://www.w3.org/2000/svg">
<path d="M0 124.342L9.2 129.692C18.5 134.842 37 145.842 55 129.692C73.8 113.842 92 70.8419 111 65.6919C129.2 60.3419 148 92.342 166 86.992C184.6 81.842 203 38.8419 222 17.6919C240 -3.65805 258 -3.65805 277 6.99195C295.4 17.8419 314 38.842 332 54.992C350.8 70.842 369 81.842 388 86.992C406.2 92.342 425 92.3419 443 89.6919C461.5 86.8419 480 81.8419 498 84.3419C516.9 86.8419 535 97.842 554 94.992C572.3 92.342 591 76.3419 609 60.3419C627.7 44.3419 646 28.3419 665 36.3419C683.1 44.3419 702 76.3419 720 73.6919C738.5 70.8419 757 33.8419 775 28.3419C793.8 22.8419 812 49.842 831 70.992C849.2 92.342 868 108.342 886 121.692C904.6 134.842 923 145.842 942 142.992C960 140.342 978 124.342 997 105.692C1015.4 86.8419 1034 65.842 1052 54.992C1070.8 44.342 1089 44.3419 1108 60.3419C1126.2 76.3419 1145 108.342 1163 108.342C1181.5 108.342 1200 76.3419 1218 60.3419C1236.9 44.3419 1255 44.342 1274 54.992C1292.3 65.842 1311 86.8419 1329 84.3419C1347.7 81.8419 1366 54.842 1385 46.992C1403.1 38.842 1422 49.842 1431 54.992L1440 60.3419V156.342H1430.8C1421.5 156.342 1403 156.342 1385 156.342C1366.2 156.342 1348 156.342 1329 156.342C1310.8 156.342 1292 156.342 1274 156.342C1255.4 156.342 1237 156.342 1218 156.342C1200 156.342 1182 156.342 1163 156.342C1144.6 156.342 1126 156.342 1108 156.342C1089.2 156.342 1071 156.342 1052 156.342C1033.8 156.342 1015 156.342 997 156.342C978.5 156.342 960 156.342 942 156.342C923.1 156.342 905 156.342 886 156.342C867.7 156.342 849 156.342 831 156.342C812.3 156.342 794 156.342 775 156.342C756.9 156.342 738 156.342 720 156.342C701.5 156.342 683 156.342 665 156.342C646.2 156.342 628 156.342 609 156.342C590.8 156.342 572 156.342 554 156.342C535.4 156.342 517 156.342 498 156.342C480 156.342 462 156.342 443 156.342C424.6 156.342 406 156.342 388 156.342C369.2 156.342 351 156.342 332 156.342C313.8 156.342 295 156.342 277 156.342C258.5 156.342 240 156.342 222 156.342C203.1 156.342 185 156.342 166 156.342C147.7 156.342 129 156.342 111 156.342C92.3 156.342 74 156.342 55 156.342C36.9 156.342 18 156.342 9 156.342H0V124.342Z" fill="#0099FF"/>
</svg>
